RobotoDelta-XOPQmax-old.ufo
<glyph name="exclam" format="1">
  <advance width="788"/>
  <unicode hex="0021"/>
  <outline>
    <contour>
      <point x="234" y="411" type="line"/>
      <point x="554" y="411" type="line"/>
      <point x="569" y="1456" type="line"/>
      <point x="218" y="1456" type="line"/>
    </contour>
    <contour>
      <point x="189" y="94" type="qcurve" smooth="yes"/>
      <point x="189" y="63"/>
      <point x="277" y="-22"/>
      <point x="393" y="-22" type="qcurve" smooth="yes"/>
      <point x="507" y="-22"/>
      <point x="599" y="63"/>
      <point x="599" y="94" type="qcurve" smooth="yes"/>
      <point x="599" y="126"/>
      <point x="507" y="212"/>
      <point x="393" y="212" type="qcurve" smooth="yes"/>
      <point x="277" y="212"/>
      <point x="189" y="126"/>
    </contour>
  </outline>
</glyph>
<glyph name="ampersand" format="1">
  <advance width="1583"/>
  <unicode hex="0026"/>
  <outline>
    <contour>
      <point x="102" y="392" type="qcurve" smooth="yes"/>
      <point x="102" y="228"/>
      <point x="419" y="-20"/>
      <point x="716" y="-20" type="qcurve" smooth="yes"/>
      <point x="885" y="-20"/>
      <point x="1149" y="63"/>
      <point x="1240" y="148" type="qcurve" smooth="yes"/>
      <point x="1256" y="161"/>
      <point x="1267" y="185"/>
      <point x="1273" y="189" type="qcurve" smooth="yes"/>
      <point x="1386" y="286"/>
      <point x="1494" y="550"/>
      <point x="1494" y="672" type="qcurve"/>
      <point x="1173" y="672" type="line"/>
      <point x="1173" y="414"/>
      <point x="867" y="132"/>
      <point x="716" y="132" type="qcurve" smooth="yes"/>
      <point x="593" y="132"/>
      <point x="445" y="269"/>
      <point x="445" y="392" type="qcurve" smooth="yes"/>
      <point x="445" y="449"/>
      <point x="496" y="566"/>
      <point x="581" y="619" type="qcurve" smooth="yes"/>
      <point x="920" y="834" type="line" smooth="yes"/>
      <point x="1058" y="922"/>
      <point x="1200" y="1083"/>
      <point x="1200" y="1169" type="qcurve" smooth="yes"/>
      <point x="1200" y="1276"/>
      <point x="963" y="1476"/>
      <point x="731" y="1476" type="qcurve" smooth="yes"/>
      <point x="495" y="1476"/>
      <point x="241" y="1277"/>
      <point x="241" y="1123" type="qcurve" smooth="yes"/>
      <point x="241" y="1031"/>
      <point x="423" y="815"/>
      <point x="556" y="683" type="qcurve" smooth="yes"/>
      <point x="1224" y="0" type="line"/>
      <point x="1576" y="0" type="line"/>
      <point x="776" y="819" type="line" smooth="yes"/>
      <point x="689" y="904"/>
      <point x="585" y="1041"/>
      <point x="585" y="1129" type="qcurve" smooth="yes"/>
      <point x="585" y="1226"/>
      <point x="675" y="1325"/>
      <point x="730" y="1325" type="qcurve" smooth="yes"/>
      <point x="784" y="1325"/>
      <point x="873" y="1244"/>
      <point x="873" y="1169" type="qcurve" smooth="yes"/>
      <point x="873" y="1076"/>
      <point x="804" y="1002"/>
      <point x="767" y="980" type="qcurve" smooth="yes"/>
      <point x="479" y="805" type="line" smooth="yes"/>
      <point x="320" y="711"/>
      <point x="102" y="513"/>
    </contour>
  </outline>
</glyph>
<glyph name="parenright" format="1">
  <advance width="919"/>
  <unicode hex="0029"/>
  <outline>
    <contour>
      <point x="124" y="-487" type="line"/>
      <point x="401" y="-356"/>
      <point x="883" y="113"/>
      <point x="883" y="532" type="qcurve" smooth="yes"/>
      <point x="883" y="542" type="line" smooth="yes"/>
      <point x="883" y="959"/>
      <point x="401" y="1411"/>
      <point x="124" y="1542" type="qcurve"/>
      <point x="124" y="1332" type="line"/>
      <point x="273" y="1252"/>
      <point x="528" y="912"/>
      <point x="528" y="544" type="qcurve" smooth="yes"/>
      <point x="528" y="520" type="line" smooth="yes"/>
      <point x="528" y="144"/>
      <point x="273" y="-192"/>
      <point x="124" y="-280" type="qcurve"/>
    </contour>
  </outline>
</glyph>
<glyph name="asterisk" format="1">
  <advance width="1366"/>
  <unicode hex="002A"/>
  <outline>
    <contour>
      <point x="64" y="1050" type="line"/>
      <point x="495" y="971" type="line"/>
      <point x="195" y="681" type="line"/>
      <point x="456" y="527" type="line"/>
      <point x="659" y="825" type="line"/>
      <point x="871" y="519" type="line"/>
      <point x="1129" y="675" type="line"/>
      <point x="832" y="961" type="line"/>
      <point x="1272" y="1039" type="line"/>
      <point x="1190" y="1263" type="line"/>
      <point x="806" y="1121" type="line"/>
      <point x="846" y="1477" type="line"/>
      <point x="496" y="1477" type="line"/>
      <point x="532" y="1127" type="line"/>
      <point x="150" y="1270" type="line"/>
    </contour>
  </outline>
</glyph>
<glyph name="plus" format="1">
  <advance width="1520"/>
  <unicode hex="002B"/>
  <outline>
    <contour>
      <point x="86" y="591" type="line"/>
      <point x="1434" y="591" type="line"/>
      <point x="1434" y="757" type="line"/>
      <point x="86" y="757" type="line"/>
    </contour>
    <contour>
      <point x="589" y="146" type="line"/>
      <point x="930" y="146" type="line"/>
      <point x="930" y="1206" type="line"/>
      <point x="589" y="1206" type="line"/>
    </contour>
  </outline>
</glyph>
<glyph name="hyphen" format="1">
  <advance width="892"/>
  <unicode hex="002D"/>
  <outline>
    <contour>
      <point x="38" y="543" type="line"/>
      <point x="854" y="543" type="line"/>
      <point x="854" y="715" type="line"/>
      <point x="38" y="715" type="line"/>
    </contour>
  </outline>
</glyph>
<glyph name="period" format="1">
  <advance width="755"/>
  <unicode hex="002E"/>
  <outline>
    <contour>
      <point x="161" y="101" type="qcurve" smooth="yes"/>
      <point x="161" y="64"/>
      <point x="259" y="-22"/>
      <point x="378" y="-22" type="qcurve" smooth="yes"/>
      <point x="496" y="-22"/>
      <point x="594" y="64"/>
      <point x="594" y="101" type="qcurve" smooth="yes"/>
      <point x="594" y="139"/>
      <point x="496" y="225"/>
      <point x="378" y="225" type="qcurve" smooth="yes"/>
      <point x="259" y="225"/>
      <point x="161" y="139"/>
    </contour>
  </outline>
</glyph>
<glyph name="slash" format="1">
  <advance width="818"/>
  <unicode hex="002F"/>
  <outline>
    <contour>
      <point x="-102" y="-125" type="line"/>
      <point x="209" y="-125" type="line"/>
      <point x="920" y="1456" type="line"/>
      <point x="610" y="1456" type="line"/>
    </contour>
  </outline>
</glyph>
<glyph name="one" format="1">
  <advance width="1378"/>
  <unicode hex="0031"/>
  <outline>
    <contour>
      <point x="602" y="0" type="line"/>
      <point x="951" y="0" type="line"/>
      <point x="951" y="1476" type="line"/>
      <point x="779" y="1476" type="line"/>
      <point x="171" y="1276" type="line"/>
      <point x="171" y="1089" type="line"/>
      <point x="602" y="1242" type="line"/>
    </contour>
  </outline>
</glyph>
<glyph name="nine" format="1">
  <advance width="1453"/>
  <unicode hex="0039"/>
  <outline>
    <contour>
      <point x="65" y="995" type="qcurve" smooth="yes"/>
      <point x="65" y="769"/>
      <point x="370" y="525"/>
      <point x="601" y="525" type="qcurve" smooth="yes"/>
      <point x="816" y="525"/>
      <point x="1054.0" y="707.0"/>
      <point x="1113" y="876" type="qcurve"/>
      <point x="1115" y="1051" type="line"/>
      <point x="1032" y="1057" type="line"/>
      <point x="1001.0" y="875.0"/>
      <point x="823.0" y="679.0"/>
      <point x="688" y="679" type="qcurve" smooth="yes"/>
      <point x="554.0" y="679.0"/>
      <point x="409.0" y="847.0"/>
      <point x="409" y="1004" type="qcurve" smooth="yes"/>
      <point x="409.0" y="1159.0"/>
      <point x="556.0" y="1326.0"/>
      <point x="693" y="1326" type="qcurve" smooth="yes"/>
      <point x="846.0" y="1326.0"/>
      <point x="1011.0" y="1077.0"/>
      <point x="1011" y="845" type="qcurve" smooth="yes"/>
      <point x="1011" y="796" type="line" smooth="yes"/>
      <point x="1011.0" y="469.0"/>
      <point x="698.0" y="117.0"/>
      <point x="406" y="117" type="qcurve" smooth="yes"/>
      <point x="308" y="117" type="line"/>
      <point x="308" y="-40" type="line"/>
      <point x="389" y="-40" type="line" smooth="yes"/>
      <point x="855.0" y="-40.0"/>
      <point x="1356" y="391"/>
      <point x="1356" y="798" type="qcurve" smooth="yes"/>
      <point x="1356" y="812" type="line" smooth="yes"/>
      <point x="1356" y="1121"/>
      <point x="1010" y="1478"/>
      <point x="688" y="1478" type="qcurve" smooth="yes"/>
      <point x="398" y="1478"/>
      <point x="65" y="1211"/>
    </contour>
  </outline>
</glyph>
<glyph name="colon" format="1">
  <advance width="772"/>
  <unicode hex="003A"/>
  <outline>
    <contour>
      <point x="176" y="96" type="qcurve" smooth="yes"/>
      <point x="176" y="61"/>
      <point x="270" y="-22"/>
      <point x="385" y="-22" type="qcurve" smooth="yes"/>
      <point x="500" y="-22"/>
      <point x="595" y="61"/>
      <point x="595" y="96" type="qcurve" smooth="yes"/>
      <point x="595" y="132"/>
      <point x="500" y="215"/>
      <point x="385" y="215" type="qcurve" smooth="yes"/>
      <point x="270" y="215"/>
      <point x="176" y="132"/>
    </contour>
    <contour>
      <point x="177" y="949" type="qcurve" smooth="yes"/>
      <point x="177" y="914"/>
      <point x="271" y="831"/>
      <point x="386" y="831" type="qcurve" smooth="yes"/>
      <point x="501" y="831"/>
      <point x="596" y="914"/>
      <point x="596" y="949" type="qcurve" smooth="yes"/>
      <point x="596" y="985"/>
      <point x="501" y="1068"/>
      <point x="386" y="1068" type="qcurve" smooth="yes"/>
      <point x="271" y="1068"/>
      <point x="177" y="985"/>
    </contour>
  </outline>
</glyph>
<glyph name="equal" format="1">
  <advance width="1488"/>
  <unicode hex="003D"/>
  <outline>
    <contour>
      <point x="153" y="787" type="line"/>
      <point x="1335" y="787" type="line"/>
      <point x="1335" y="955" type="line"/>
      <point x="153" y="955" type="line"/>
    </contour>
    <contour>
      <point x="153" y="379" type="line"/>
      <point x="1335" y="379" type="line"/>
      <point x="1335" y="547" type="line"/>
      <point x="153" y="547" type="line"/>
    </contour>
  </outline>
</glyph>
<glyph name="greater" format="1">
  <advance width="1477"/>
  <unicode hex="003E"/>
  <outline>
    <contour>
      <point x="180" y="161" type="line"/>
      <point x="1305" y="582" type="line"/>
      <point x="1305" y="713" type="line"/>
      <point x="180" y="1133" type="line"/>
      <point x="180" y="917" type="line"/>
      <point x="947" y="645" type="line"/>
      <point x="180" y="377" type="line"/>
    </contour>
  </outline>
</glyph>
<glyph name="question" format="1">
  <advance width="1234"/>
  <unicode hex="003F"/>
  <outline>
    <contour>
      <point x="735" y="410" type="line"/>
      <point x="735" y="412" type="line" smooth="yes"/>
      <point x="735" y="511"/>
      <point x="777" y="627"/>
      <point x="869" y="698" type="qcurve" smooth="yes"/>
      <point x="956" y="764"/>
      <point x="1138" y="981"/>
      <point x="1138" y="1096" type="qcurve" smooth="yes"/>
      <point x="1138" y="1256"/>
      <point x="871" y="1476"/>
      <point x="606" y="1476" type="qcurve" smooth="yes"/>
      <point x="342" y="1476"/>
      <point x="60" y="1269"/>
      <point x="60" y="1117" type="qcurve" smooth="yes"/>
      <point x="60" y="1097" type="line"/>
      <point x="403" y="1097" type="line"/>
      <point x="403" y="1117" type="line" smooth="yes"/>
      <point x="403" y="1224"/>
      <point x="528" y="1314"/>
      <point x="606" y="1314" type="qcurve" smooth="yes"/>
      <point x="683" y="1314"/>
      <point x="794" y="1220"/>
      <point x="794" y="1101" type="qcurve" smooth="yes"/>
      <point x="794" y="981"/>
      <point x="685" y="857"/>
      <point x="619" y="802" type="qcurve" smooth="yes"/>
      <point x="473" y="680"/>
      <point x="391" y="517"/>
      <point x="391" y="415" type="qcurve" smooth="yes"/>
      <point x="391" y="410" type="line"/>
    </contour>
    <contour>
      <point x="368" y="94" type="qcurve" smooth="yes"/>
      <point x="368" y="63"/>
      <point x="459" y="-22"/>
      <point x="572" y="-22" type="qcurve" smooth="yes"/>
      <point x="686" y="-22"/>
      <point x="777" y="63"/>
      <point x="777" y="94" type="qcurve" smooth="yes"/>
      <point x="777" y="126"/>
      <point x="686" y="211"/>
      <point x="572" y="211" type="qcurve" smooth="yes"/>
      <point x="459" y="211"/>
      <point x="368" y="126"/>
    </contour>
  </outline>
</glyph>
<glyph name="D" format="1">
  <advance width="1699"/>
  <unicode hex="0044"/>
  <outline>
    <contour>
      <point x="170" y="0" type="line"/>
      <point x="736" y="0" type="line" smooth="yes"/>
      <point x="1133" y="0"/>
      <point x="1584" y="386"/>
      <point x="1584" y="722" type="qcurve" smooth="yes"/>
      <point x="1584" y="741" type="line" smooth="yes"/>
      <point x="1584" y="1069"/>
      <point x="1136" y="1456"/>
      <point x="757" y="1456" type="qcurve" smooth="yes"/>
      <point x="170" y="1456" type="line"/>
    </contour>
    <contour>
      <point x="519" y="157" type="line"/>
      <point x="519" y="1298" type="line"/>
      <point x="758" y="1298" type="line" smooth="yes"/>
      <point x="972" y="1298"/>
      <point x="1219" y="1022"/>
      <point x="1219" y="754" type="qcurve" smooth="yes"/>
      <point x="1219" y="715" type="line" smooth="yes"/>
      <point x="1219" y="446"/>
      <point x="972" y="157"/>
      <point x="740" y="157" type="qcurve" smooth="yes"/>
    </contour>
  </outline>
</glyph>
<glyph name="E" format="1">
  <advance width="1448"/>
  <unicode hex="0045"/>
  <outline>
    <contour>
      <point x="170" y="0" type="line"/>
      <point x="1380" y="0" type="line"/>
      <point x="1380" y="157" type="line"/>
      <point x="522" y="157" type="line"/>
      <point x="522" y="673" type="line"/>
      <point x="1260" y="673" type="line"/>
      <point x="1260" y="830" type="line"/>
      <point x="522" y="830" type="line"/>
      <point x="522" y="1298" type="line"/>
      <point x="1368" y="1298" type="line"/>
      <point x="1368" y="1456" type="line"/>
      <point x="170" y="1456" type="line"/>
    </contour>
    <contour>
      <point x="759" y="1432" type="move" name="top"/>
    </contour>
  </outline>
</glyph>
<glyph name="H" format="1">
  <advance width="1777"/>
  <unicode hex="0048"/>
  <outline>
    <contour>
      <point x="170" y="0" type="line"/>
      <point x="521" y="0" type="line"/>
      <point x="521" y="673" type="line"/>
      <point x="1256" y="673" type="line"/>
      <point x="1256" y="0" type="line"/>
      <point x="1607" y="0" type="line"/>
      <point x="1607" y="1456" type="line"/>
      <point x="1256" y="1456" type="line"/>
      <point x="1256" y="830" type="line"/>
      <point x="521" y="830" type="line"/>
      <point x="521" y="1456" type="line"/>
      <point x="170" y="1456" type="line"/>
    </contour>
  </outline>
</glyph>
<glyph name="M" format="1">
  <advance width="2038"/>
  <unicode hex="004D"/>
  <outline>
    <contour>
      <point x="170" y="0" type="line"/>
      <point x="350" y="0" type="line"/>
      <point x="350" y="919" type="line" smooth="yes"/>
      <point x="350" y="933"/>
      <point x="344" y="1124"/>
      <point x="337" y="1185" type="qcurve"/>
      <point x="356" y="1185" type="line"/>
      <point x="357" y="1179"/>
      <point x="386" y="1091"/>
      <point x="397" y="1063" type="qcurve" smooth="yes"/>
      <point x="817" y="0" type="line"/>
      <point x="1060" y="0" type="line"/>
      <point x="1485" y="1063" type="line" smooth="yes"/>
      <point x="1496" y="1090"/>
      <point x="1518" y="1179"/>
      <point x="1519" y="1185" type="qcurve"/>
      <point x="1535" y="1185" type="line"/>
      <point x="1523" y="1128"/>
      <point x="1516" y="934"/>
      <point x="1516" y="919" type="qcurve" smooth="yes"/>
      <point x="1516" y="0" type="line"/>
      <point x="1868" y="0" type="line"/>
      <point x="1868" y="1456" type="line"/>
      <point x="1452" y="1456" type="line"/>
      <point x="1076" y="488" type="line" smooth="yes"/>
      <point x="1068" y="468"/>
      <point x="1031" y="360"/>
      <point x="1027" y="342" type="qcurve"/>
      <point x="1020" y="342" type="line"/>
      <point x="1018" y="360"/>
      <point x="966" y="497"/>
      <point x="958" y="517" type="qcurve" smooth="yes"/>
      <point x="587" y="1456" type="line"/>
      <point x="170" y="1456" type="line"/>
    </contour>
  </outline>
</glyph>
<glyph name="N" format="1">
  <advance width="1608"/>
  <unicode hex="004E"/>
  <outline>
    <contour>
      <point x="170" y="0" type="line"/>
      <point x="360" y="0" type="line"/>
      <point x="360" y="1012" type="line" smooth="yes"/>
      <point x="360" y="1066"/>
      <point x="358" y="1107"/>
      <point x="356" y="1127" type="qcurve"/>
      <point x="366" y="1127" type="line"/>
      <point x="376" y="1106"/>
      <point x="422" y="1039"/>
      <point x="431" y="1025" type="qcurve" smooth="yes"/>
      <point x="1100" y="0" type="line"/>
      <point x="1438" y="0" type="line"/>
      <point x="1438" y="1456" type="line"/>
      <point x="1252" y="1456" type="line"/>
      <point x="1252" y="521" type="line" smooth="yes"/>
      <point x="1252" y="509"/>
      <point x="1256" y="458"/>
      <point x="1259" y="406" type="qcurve"/>
      <point x="1243" y="406" type="line"/>
      <point x="1239" y="413"/>
      <point x="1189" y="484"/>
      <point x="1180" y="498" type="qcurve" smooth="yes"/>
      <point x="555" y="1456" type="line"/>
      <point x="170" y="1456" type="line"/>
    </contour>
    <contour>
      <point x="754" y="1432" type="move" name="top"/>
    </contour>
  </outline>
</glyph>
<glyph name="Q" format="1">
  <advance width="1798"/>
  <unicode hex="0051"/>
  <outline>
    <contour>
      <point x="115" y="715" type="line" smooth="yes"/>
      <point x="115" y="379"/>
      <point x="582" y="-25"/>
      <point x="901" y="-25" type="qcurve" smooth="yes"/>
      <point x="1234" y="-25"/>
      <point x="1683" y="379"/>
      <point x="1683" y="715" type="qcurve" smooth="yes"/>
      <point x="1683" y="750" type="line" smooth="yes"/>
      <point x="1683" y="1084"/>
      <point x="1262" y="1496"/>
      <point x="898" y="1496" type="qcurve" smooth="yes"/>
      <point x="543" y="1496"/>
      <point x="115" y="1083"/>
      <point x="115" y="749" type="qcurve" smooth="yes"/>
    </contour>
    <contour>
      <point x="480" y="699" type="qcurve" smooth="yes"/>
      <point x="480" y="764" type="line" smooth="yes"/>
      <point x="480" y="1034"/>
      <point x="713" y="1332"/>
      <point x="899" y="1332" type="qcurve" smooth="yes"/>
      <point x="1092" y="1332"/>
      <point x="1319" y="1032"/>
      <point x="1319" y="765" type="qcurve" smooth="yes"/>
      <point x="1319" y="699" type="line" smooth="yes"/>
      <point x="1319" y="422"/>
      <point x="1096" y="133"/>
      <point x="901" y="133" type="qcurve" smooth="yes"/>
      <point x="717" y="133"/>
      <point x="480" y="424"/>
    </contour>
    <contour>
      <point x="1366" y="-239" type="line"/>
      <point x="1554" y="-72" type="line"/>
      <point x="1151" y="200" type="line"/>
      <point x="968" y="43" type="line"/>
    </contour>
  </outline>
</glyph>
<glyph name="R" format="1">
  <advance width="1551"/>
  <unicode hex="0052"/>
  <outline>
    <contour>
      <point x="170" y="0" type="line"/>
      <point x="522" y="0" type="line"/>
      <point x="522" y="590" type="line"/>
      <point x="984" y="590" type="line"/>
      <point x="1201" y="620"/>
      <point x="1443" y="854"/>
      <point x="1443" y="1019" type="qcurve" smooth="yes"/>
      <point x="1443" y="1217"/>
      <point x="1142" y="1456"/>
      <point x="813" y="1456" type="qcurve" smooth="yes"/>
      <point x="170" y="1456" type="line"/>
    </contour>
    <contour>
      <point x="522" y="747" type="line"/>
      <point x="522" y="1298" type="line"/>
      <point x="781" y="1298" type="line" smooth="yes"/>
      <point x="930" y="1298"/>
      <point x="1099" y="1160"/>
      <point x="1099" y="1019" type="qcurve" smooth="yes"/>
      <point x="1099" y="890"/>
      <point x="924" y="747"/>
      <point x="788" y="747" type="qcurve" smooth="yes"/>
    </contour>
    <contour>
      <point x="1117" y="0" type="line"/>
      <point x="1517" y="0" type="line"/>
      <point x="1127" y="661" type="line"/>
      <point x="756" y="661" type="line"/>
    </contour>
  </outline>
</glyph>
<glyph name="T" format="1">
  <advance width="1493"/>
  <unicode hex="0054"/>
  <outline>
    <contour>
      <point x="24" y="1298" type="line"/>
      <point x="572" y="1298" type="line"/>
      <point x="572" y="0" type="line"/>
      <point x="921" y="0" type="line"/>
      <point x="921" y="1298" type="line"/>
      <point x="1469" y="1298" type="line"/>
      <point x="1469" y="1456" type="line"/>
      <point x="24" y="1456" type="line"/>
    </contour>
  </outline>
</glyph>
<glyph name="U" format="1">
  <advance width="1624"/>
  <unicode hex="0055"/>
  <outline>
    <contour>
      <point x="132" y="471" type="line" smooth="yes"/>
      <point x="132" y="240"/>
      <point x="507" y="-30"/>
      <point x="811" y="-30" type="qcurve" smooth="yes"/>
      <point x="1100" y="-30"/>
      <point x="1492" y="240"/>
      <point x="1492" y="471" type="qcurve" smooth="yes"/>
      <point x="1492" y="1456" type="line"/>
      <point x="1141" y="1456" type="line"/>
      <point x="1141" y="471" type="line" smooth="yes"/>
      <point x="1141" y="287"/>
      <point x="944" y="137"/>
      <point x="811" y="137" type="qcurve" smooth="yes"/>
      <point x="680" y="137"/>
      <point x="483" y="287"/>
      <point x="483" y="471" type="qcurve" smooth="yes"/>
      <point x="483" y="1456" type="line"/>
      <point x="132" y="1456" type="line"/>
    </contour>
    <contour>
      <point x="812" y="1432" type="move" name="top"/>
    </contour>
  </outline>
</glyph>
<glyph name="W" format="1">
  <advance width="2161"/>
  <unicode hex="0057"/>
  <outline>
    <contour>
      <point x="401" y="-10" type="line"/>
      <point x="758" y="-10" type="line"/>
      <point x="1060" y="1046" type="line" smooth="yes"/>
      <point x="1068" y="1075"/>
      <point x="1086" y="1138"/>
      <point x="1088" y="1144" type="qcurve"/>
      <point x="1107" y="1144" type="line"/>
      <point x="1108" y="1138"/>
      <point x="1126" y="1072"/>
      <point x="1133" y="1043" type="qcurve" smooth="yes"/>
      <point x="1404" y="-10" type="line"/>
      <point x="1762" y="-10" type="line"/>
      <point x="2108" y="1456" type="line"/>
      <point x="1923" y="1456" type="line"/>
      <point x="1681" y="358" type="line" smooth="yes"/>
      <point x="1675" y="329"/>
      <point x="1666" y="266"/>
      <point x="1664" y="244" type="qcurve"/>
      <point x="1658" y="244" type="line"/>
      <point x="1655" y="266"/>
      <point x="1645" y="331"/>
      <point x="1638" y="358" type="qcurve" smooth="yes"/>
      <point x="1356" y="1456" type="line"/>
      <point x="977" y="1456" type="line"/>
      <point x="669" y="358" type="line" smooth="yes"/>
      <point x="654" y="305"/>
      <point x="659" y="265"/>
      <point x="658" y="244" type="qcurve"/>
      <point x="648" y="244" type="line"/>
      <point x="646" y="265"/>
      <point x="652" y="304"/>
      <point x="640" y="358" type="qcurve" smooth="yes"/>
      <point x="404" y="1456" type="line"/>
      <point x="53" y="1456" type="line"/>
    </contour>
  </outline>
</glyph>
<glyph name="X" format="1">
  <advance width="1409"/>
  <unicode hex="0058"/>
  <outline>
    <contour>
      <point x="24" y="1456" type="line"/>
      <point x="548" y="644" type="line"/>
      <point x="558" y="644" type="line"/>
      <point x="968" y="0" type="line"/>
      <point x="1385" y="0" type="line"/>
      <point x="854" y="813" type="line"/>
      <point x="842" y="813" type="line"/>
      <point x="439" y="1456" type="line"/>
    </contour>
    <contour>
      <point x="62" y="0" type="line"/>
      <point x="277" y="0" type="line"/>
      <point x="689" y="644" type="line"/>
      <point x="789" y="644" type="line"/>
      <point x="1304" y="1456" type="line"/>
      <point x="1089" y="1456" type="line"/>
      <point x="696" y="803" type="line"/>
      <point x="592" y="803" type="line"/>
    </contour>
  </outline>
</glyph>
<glyph name="underscore" format="1">
  <advance width="1257"/>
  <unicode hex="005F"/>
  <outline>
    <contour>
      <point x="0" y="-266" type="line"/>
      <point x="495" y="-266" type="line"/>
      <point x="495" y="-100" type="line"/>
      <point x="0" y="-100" type="line"/>
    </contour>
    <contour>
      <point x="381" y="-266" type="line"/>
      <point x="876" y="-266" type="line"/>
      <point x="876" y="-100" type="line"/>
      <point x="381" y="-100" type="line"/>
    </contour>
    <contour>
      <point x="762" y="-266" type="line"/>
      <point x="1257" y="-266" type="line"/>
      <point x="1257" y="-100" type="line"/>
      <point x="762" y="-100" type="line"/>
    </contour>
  </outline>
</glyph>
<glyph name="j" format="1">
  <advance width="647"/>
  <unicode hex="006A"/>
  <outline>
    <contour>
      <point x="-165" y="-403" type="line"/>
      <point x="-116" y="-418"/>
      <point x="9" y="-437"/>
      <point x="96" y="-437" type="qcurve" smooth="yes"/>
      <point x="302" y="-437"/>
      <point x="489" y="-249"/>
      <point x="489" y="-76" type="qcurve" smooth="yes"/>
      <point x="489" y="1052" type="line"/>
      <point x="146" y="1052" type="line"/>
      <point x="146" y="-129" type="line" smooth="yes"/>
      <point x="146" y="-225"/>
      <point x="83" y="-280"/>
      <point x="47" y="-280" type="qcurve" smooth="yes"/>
      <point x="9" y="-280"/>
      <point x="-90" y="-260"/>
      <point x="-165" y="-236" type="qcurve"/>
    </contour>
    <contour>
      <point x="122" y="1369" type="qcurve" smooth="yes"/>
      <point x="122" y="1319"/>
      <point x="221" y="1265"/>
      <point x="314" y="1265" type="qcurve" smooth="yes"/>
      <point x="407" y="1265"/>
      <point x="507" y="1319"/>
      <point x="507" y="1369" type="qcurve" smooth="yes"/>
      <point x="507" y="1421"/>
      <point x="407" y="1476"/>
      <point x="314" y="1476" type="qcurve" smooth="yes"/>
      <point x="221" y="1476"/>
      <point x="122" y="1421"/>
    </contour>
  </outline>
</glyph>
<glyph name="m" format="1">
  <advance width="2238"/>
  <unicode hex="006D"/>
  <outline>
    <contour>
      <point x="148" y="0" type="line"/>
      <point x="492" y="0" type="line"/>
      <point x="492" y="763" type="line"/>
      <point x="523" y="831"/>
      <point x="640" y="916"/>
      <point x="731" y="916" type="qcurve" smooth="yes"/>
      <point x="835" y="916"/>
      <point x="952" y="808"/>
      <point x="952" y="682" type="qcurve" smooth="yes"/>
      <point x="952" y="0" type="line"/>
      <point x="1296" y="0" type="line"/>
      <point x="1296" y="763" type="line"/>
      <point x="1327" y="831"/>
      <point x="1444" y="916"/>
      <point x="1535" y="916" type="qcurve" smooth="yes"/>
      <point x="1639" y="916"/>
      <point x="1756" y="808"/>
      <point x="1756" y="682" type="qcurve" smooth="yes"/>
      <point x="1756" y="0" type="line"/>
      <point x="2100" y="0" type="line"/>
      <point x="2100" y="681" type="line" smooth="yes"/>
      <point x="2100" y="863"/>
      <point x="1885" y="1072"/>
      <point x="1685" y="1072" type="qcurve" smooth="yes"/>
      <point x="1526" y="1072"/>
      <point x="1306" y="976"/>
      <point x="1248" y="907" type="qcurve"/>
      <point x="1195" y="989"/>
      <point x="1007" y="1072"/>
      <point x="869" y="1072" type="qcurve" smooth="yes"/>
      <point x="728" y="1072"/>
      <point x="541" y="987"/>
      <point x="488" y="917" type="qcurve"/>
      <point x="486" y="917" type="line"/>
      <point x="475" y="1052" type="line"/>
      <point x="148" y="1052" type="line"/>
    </contour>
  </outline>
</glyph>
<glyph name="p" format="1">
  <advance width="1506"/>
  <unicode hex="0070"/>
  <outline>
    <contour>
      <point x="148" y="-416" type="line"/>
      <point x="492" y="-416" type="line"/>
      <point x="492" y="104" type="line"/>
      <point x="533" y="55"/>
      <point x="704" y="-25"/>
      <point x="853" y="-25" type="qcurve" smooth="yes"/>
      <point x="1116" y="-25"/>
      <point x="1421" y="299"/>
      <point x="1421" y="529" type="qcurve" smooth="yes"/>
      <point x="1421" y="550" type="line" smooth="yes"/>
      <point x="1421" y="793"/>
      <point x="1120" y="1092"/>
      <point x="852" y="1092" type="qcurve" smooth="yes"/>
      <point x="752" y="1092"/>
      <point x="548" y="1001"/>
      <point x="487" y="928" type="qcurve"/>
      <point x="469" y="1052" type="line"/>
      <point x="148" y="1052" type="line"/>
    </contour>
    <contour>
      <point x="493" y="321" type="qcurve"/>
      <point x="493" y="744" type="line"/>
      <point x="530" y="819"/>
      <point x="671" y="936"/>
      <point x="787" y="936" type="qcurve" smooth="yes"/>
      <point x="916" y="936"/>
      <point x="1054" y="703"/>
      <point x="1054" y="550" type="qcurve" smooth="yes"/>
      <point x="1054" y="529" type="line" smooth="yes"/>
      <point x="1054" y="360"/>
      <point x="916" y="127"/>
      <point x="767" y="127" type="qcurve" smooth="yes"/>
      <point x="657" y="127"/>
      <point x="520" y="253"/>
    </contour>
  </outline>
</glyph>
<glyph name="r" format="1">
  <advance width="963"/>
  <unicode hex="0072"/>
  <outline>
    <contour>
      <point x="148" y="0" type="line"/>
      <point x="492" y="0" type="line"/>
      <point x="492" y="759" type="line"/>
      <point x="518" y="816"/>
      <point x="646" y="909"/>
      <point x="750" y="909" type="qcurve" smooth="yes"/>
      <point x="808" y="909"/>
      <point x="896" y="902"/>
      <point x="933" y="896" type="qcurve"/>
      <point x="933" y="1068" type="line"/>
      <point x="917" y="1074"/>
      <point x="850" y="1085"/>
      <point x="800" y="1085" type="qcurve" smooth="yes"/>
      <point x="676" y="1085"/>
      <point x="531" y="978"/>
      <point x="493" y="917" type="qcurve"/>
      <point x="487" y="917" type="line"/>
      <point x="475" y="1052" type="line"/>
      <point x="148" y="1052" type="line"/>
    </contour>
  </outline>
</glyph>
<glyph name="t" format="1">
  <advance width="906"/>
  <unicode hex="0074"/>
  <outline>
    <contour>
      <point x="0" y="910" type="line"/>
      <point x="858" y="910" type="line"/>
      <point x="858" y="1052" type="line"/>
      <point x="0" y="1052" type="line"/>
    </contour>
    <contour>
      <point x="233" y="306" type="line" smooth="yes"/>
      <point x="233" y="130"/>
      <point x="431" y="-39"/>
      <point x="598" y="-39" type="qcurve" smooth="yes"/>
      <point x="695" y="-39"/>
      <point x="803" y="-21"/>
      <point x="853" y="0" type="qcurve"/>
      <point x="853" y="146" type="line"/>
      <point x="801" y="129"/>
      <point x="711" y="120"/>
      <point x="666" y="120" type="qcurve" smooth="yes"/>
      <point x="623" y="120"/>
      <point x="575" y="185"/>
      <point x="575" y="269" type="qcurve" smooth="yes"/>
      <point x="575" y="1315" type="line"/>
      <point x="233" y="1315" type="line"/>
      <point x="233" y="1000" type="line"/>
      <point x="233" y="967" type="line"/>
    </contour>
  </outline>
</glyph>
<glyph name="u" format="1">
  <advance width="1455"/>
  <unicode hex="0075"/>
  <outline>
    <contour>
      <point x="138" y="384" type="line" smooth="yes"/>
      <point x="138" y="182"/>
      <point x="400" y="-24"/>
      <point x="636" y="-24" type="qcurve" smooth="yes"/>
      <point x="773" y="-24"/>
      <point x="931" y="70"/>
      <point x="978" y="135" type="qcurve"/>
      <point x="988" y="0" type="line"/>
      <point x="1307" y="0" type="line"/>
      <point x="1307" y="1052" type="line"/>
      <point x="963" y="1052" type="line"/>
      <point x="963" y="294" type="line"/>
      <point x="922" y="208"/>
      <point x="780" y="133"/>
      <point x="681" y="133" type="qcurve" smooth="yes"/>
      <point x="576" y="133"/>
      <point x="482" y="266"/>
      <point x="482" y="382" type="qcurve" smooth="yes"/>
      <point x="482" y="1052" type="line"/>
      <point x="138" y="1052" type="line"/>
    </contour>
    <contour>
      <point x="725" y="1052" type="move" name="top"/>
    </contour>
  </outline>
</glyph>
<glyph name="x" format="1">
  <advance width="1177"/>
  <unicode hex="0078"/>
  <outline>
    <contour>
      <point x="24" y="0" type="line"/>
      <point x="233" y="0" type="line"/>
      <point x="599" y="471" type="line"/>
      <point x="686" y="471" type="line"/>
      <point x="1132" y="1052" type="line"/>
      <point x="925" y="1052" type="line"/>
      <point x="575" y="590" type="line"/>
      <point x="486" y="590" type="line"/>
    </contour>
    <contour>
      <point x="44" y="1052" type="line"/>
      <point x="430" y="471" type="line"/>
      <point x="441" y="471" type="line"/>
      <point x="742" y="0" type="line"/>
      <point x="1153" y="0" type="line"/>
      <point x="745" y="610" type="line"/>
      <point x="730" y="610" type="line"/>
      <point x="454" y="1052" type="line"/>
    </contour>
  </outline>
</glyph>
<glyph name="y" format="1">
  <advance width="1108"/>
  <unicode hex="0079"/>
  <outline>
    <contour>
      <point x="59" y="-404" type="line"/>
      <point x="104" y="-423"/>
      <point x="210" y="-437"/>
      <point x="292" y="-437" type="qcurve" smooth="yes"/>
      <point x="452" y="-437"/>
      <point x="626" y="-303"/>
      <point x="674" y="-168" type="qcurve" smooth="yes"/>
      <point x="1108" y="1052" type="line"/>
      <point x="921" y="1052" type="line"/>
      <point x="693" y="358" type="line" smooth="yes"/>
      <point x="679" y="316"/>
      <point x="659" y="232"/>
      <point x="655" y="200" type="qcurve"/>
      <point x="653" y="200" type="line"/>
      <point x="650" y="232"/>
      <point x="631" y="318"/>
      <point x="617" y="359" type="qcurve" smooth="yes"/>
      <point x="379" y="1052" type="line"/>
      <point x="8" y="1052" type="line"/>
      <point x="486" y="-203" type="line"/>
      <point x="474" y="-216" type="line" smooth="yes"/>
      <point x="433" y="-261"/>
      <point x="314" y="-275"/>
      <point x="273" y="-275" type="qcurve" smooth="yes"/>
      <point x="210" y="-275"/>
      <point x="109" y="-264"/>
      <point x="59" y="-253" type="qcurve"/>
    </contour>
    <contour>
      <point x="724" y="1052" type="move" name="top"/>
    </contour>
  </outline>
</glyph>
<glyph name="bar" format="1">
  <advance width="749"/>
  <unicode hex="007C"/>
  <outline>
    <contour>
      <point x="210" y="-420" type="line"/>
      <point x="539" y="-420" type="line"/>
      <point x="539" y="1456" type="line"/>
      <point x="210" y="1456" type="line"/>
    </contour>
  </outline>
</glyph>
<glyph name="braceright" format="1">
  <advance width="923"/>
  <unicode hex="007D"/>
  <outline>
    <contour>
      <point x="609" y="312" type="line" smooth="yes"/>
      <point x="572" y="448"/>
      <point x="707" y="513"/>
      <point x="859" y="513" type="qcurve"/>
      <point x="859" y="645" type="line"/>
      <point x="707" y="645"/>
      <point x="571" y="710"/>
      <point x="609" y="845" type="qcurve" smooth="yes"/>
      <point x="667" y="1047" type="line" smooth="yes"/>
      <point x="703" y="1172"/>
      <point x="371" y="1460"/>
      <point x="22" y="1460" type="qcurve"/>
      <point x="22" y="1315" type="line"/>
      <point x="201" y="1315"/>
      <point x="371" y="1153"/>
      <point x="336" y="1036" type="qcurve" smooth="yes"/>
      <point x="268" y="801" type="line" smooth="yes"/>
      <point x="252" y="745"/>
      <point x="340" y="609"/>
      <point x="465" y="579" type="qcurve"/>
      <point x="341" y="554"/>
      <point x="253" y="412"/>
      <point x="268" y="358" type="qcurve" smooth="yes"/>
      <point x="327" y="146" type="line" smooth="yes"/>
      <point x="368" y="-6"/>
      <point x="201" y="-166"/>
      <point x="22" y="-166" type="qcurve"/>
      <point x="22" y="-312" type="line"/>
      <point x="371" y="-312"/>
      <point x="702" y="-24"/>
      <point x="668" y="100" type="qcurve" smooth="yes"/>
    </contour>
  </outline>
</glyph>
<glyph name="currency" format="1">
  <advance width="1768"/>
  <unicode hex="00A4"/>
  <outline>
    <contour>
      <point x="466" y="622" type="qcurve" smooth="yes"/>
      <point x="466" y="835"/>
      <point x="722" y="1074"/>
      <point x="888" y="1074" type="qcurve" smooth="yes"/>
      <point x="1047" y="1074"/>
      <point x="1309" y="826"/>
      <point x="1309" y="622" type="qcurve" smooth="yes"/>
      <point x="1309" y="412"/>
      <point x="1055" y="169"/>
      <point x="888" y="169" type="qcurve" smooth="yes"/>
      <point x="731" y="169"/>
      <point x="466" y="419"/>
    </contour>
    <contour>
      <point x="135" y="622" type="qcurve" smooth="yes"/>
      <point x="135" y="376"/>
      <point x="560" y="1"/>
      <point x="888" y="1" type="qcurve" smooth="yes"/>
      <point x="1205" y="1"/>
      <point x="1642" y="383"/>
      <point x="1642" y="622" type="qcurve" smooth="yes"/>
      <point x="1642" y="868"/>
      <point x="1217" y="1241"/>
      <point x="888" y="1241" type="qcurve" smooth="yes"/>
      <point x="579" y="1241"/>
      <point x="135" y="856"/>
    </contour>
    <contour>
      <point x="1678" y="1142" type="line"/>
      <point x="1479" y="1318" type="line"/>
      <point x="1197" y="1073" type="line"/>
      <point x="1396" y="897" type="line"/>
    </contour>
    <contour>
      <point x="585" y="194" type="line"/>
      <point x="387" y="368" type="line"/>
      <point x="105" y="124" type="line"/>
      <point x="303" y="-51" type="line"/>
    </contour>
    <contour>
      <point x="1479" y="-52" type="line"/>
      <point x="1678" y="124" type="line"/>
      <point x="1396" y="368" type="line"/>
      <point x="1197" y="193" type="line"/>
    </contour>
    <contour>
      <point x="387" y="897" type="line"/>
      <point x="585" y="1072" type="line"/>
      <point x="303" y="1317" type="line"/>
      <point x="105" y="1142" type="line"/>
    </contour>
  </outline>
</glyph>
<glyph name="yen" format="1">
  <advance width="1356"/>
  <unicode hex="00A5"/>
  <outline>
    <contour>
      <point x="44" y="582" type="line"/>
      <point x="1313" y="582" type="line"/>
      <point x="1313" y="727" type="line"/>
      <point x="44" y="727" type="line"/>
    </contour>
    <contour>
      <point x="44" y="272" type="line"/>
      <point x="1313" y="272" type="line"/>
      <point x="1313" y="416" type="line"/>
      <point x="44" y="416" type="line"/>
    </contour>
    <contour>
      <point x="16" y="1456" type="line"/>
      <point x="502" y="566" type="line"/>
      <point x="502" y="0" type="line"/>
      <point x="843" y="0" type="line"/>
      <point x="843" y="567" type="line"/>
      <point x="1340" y="1456" type="line"/>
      <point x="990" y="1456" type="line"/>
      <point x="678" y="821" type="line" smooth="yes"/>
      <point x="661" y="787"/>
      <point x="629" y="729"/>
      <point x="627" y="726" type="qcurve"/>
      <point x="729" y="726" type="line"/>
      <point x="728" y="728"/>
      <point x="691" y="801"/>
      <point x="681" y="821" type="qcurve" smooth="yes"/>
      <point x="358" y="1456" type="line"/>
    </contour>
  </outline>
</glyph>
<glyph name="brokenbar" format="1">
  <advance width="749"/>
  <unicode hex="00A6"/>
  <outline>
    <contour>
      <point x="209" y="-421" type="line"/>
      <point x="540" y="-421" type="line"/>
      <point x="540" y="419" type="line"/>
      <point x="209" y="419" type="line"/>
    </contour>
    <contour>
      <point x="209" y="616" type="line"/>
      <point x="540" y="616" type="line"/>
      <point x="540" y="1456" type="line"/>
      <point x="209" y="1456" type="line"/>
    </contour>
  </outline>
</glyph>
<glyph name="section" format="1">
  <advance width="1514"/>
  <unicode hex="00A7"/>
  <outline>
    <contour>
      <point x="1380" y="-97" type="qcurve" smooth="yes"/>
      <point x="1380" y="-10"/>
      <point x="1245" y="149"/>
      <point x="1074" y="225" type="qcurve"/>
      <point x="1206" y="246"/>
      <point x="1380" y="391"/>
      <point x="1380" y="496" type="qcurve" smooth="yes"/>
      <point x="1380" y="628"/>
      <point x="1137" y="790"/>
      <point x="884" y="878" type="qcurve" smooth="yes"/>
      <point x="688" y="947"/>
      <point x="539" y="1040"/>
      <point x="539" y="1136" type="qcurve" smooth="yes"/>
      <point x="539" y="1237"/>
      <point x="661" y="1322"/>
      <point x="783" y="1322" type="qcurve" smooth="yes"/>
      <point x="900" y="1322"/>
      <point x="1044" y="1220"/>
      <point x="1044" y="1097" type="qcurve" smooth="yes"/>
      <point x="1044" y="1079" type="line"/>
      <point x="1360" y="1079" type="line"/>
      <point x="1360" y="1093" type="line" smooth="yes"/>
      <point x="1360" y="1264"/>
      <point x="1068" y="1486"/>
      <point x="788" y="1486" type="qcurve" smooth="yes"/>
      <point x="529" y="1486"/>
      <point x="211" y="1252"/>
      <point x="211" y="1125" type="qcurve" smooth="yes"/>
      <point x="211" y="1055"/>
      <point x="303" y="911"/>
      <point x="397" y="856" type="qcurve"/>
      <point x="278" y="818"/>
      <point x="136" y="654"/>
      <point x="136" y="565" type="qcurve" smooth="yes"/>
      <point x="136" y="428"/>
      <point x="389" y="249"/>
      <point x="660" y="161" type="qcurve" smooth="yes"/>
      <point x="872" y="91"/>
      <point x="1053" y="-10"/>
      <point x="1053" y="-108" type="qcurve" smooth="yes"/>
      <point x="1053" y="-212"/>
      <point x="885" y="-311"/>
      <point x="753" y="-311" type="qcurve" smooth="yes"/>
      <point x="626" y="-311"/>
      <point x="441" y="-194"/>
      <point x="441" y="-68" type="qcurve" smooth="yes"/>
      <point x="441" y="-49" type="line"/>
      <point x="126" y="-49" type="line"/>
      <point x="126" y="-64" type="line" smooth="yes"/>
      <point x="126" y="-242"/>
      <point x="455" y="-471"/>
      <point x="748" y="-471" type="qcurve" smooth="yes"/>
      <point x="1055" y="-471"/>
      <point x="1380" y="-253"/>
    </contour>
    <contour>
      <point x="736" y="332" type="qcurve" smooth="yes"/>
      <point x="612" y="364"/>
      <point x="441" y="471"/>
      <point x="441" y="583" type="qcurve" smooth="yes"/>
      <point x="441" y="723"/>
      <point x="583" y="786"/>
      <point x="696" y="740" type="qcurve" smooth="yes"/>
      <point x="874" y="667"/>
      <point x="1065" y="584"/>
      <point x="1065" y="479" type="qcurve" smooth="yes"/>
      <point x="1065" y="384"/>
      <point x="870" y="296"/>
    </contour>
  </outline>
</glyph>
<glyph name="copyright" format="1">
  <advance width="2135"/>
  <unicode hex="00A9"/>
  <outline>
    <contour>
      <point x="399" y="699" type="qcurve" smooth="yes"/>
      <point x="399" y="976"/>
      <point x="787" y="1331"/>
      <point x="1069" y="1331" type="qcurve" smooth="yes"/>
      <point x="1335" y="1331"/>
      <point x="1734" y="965"/>
      <point x="1734" y="699" type="qcurve" smooth="yes"/>
      <point x="1734" y="408"/>
      <point x="1351" y="64"/>
      <point x="1069" y="64" type="qcurve" smooth="yes"/>
      <point x="801" y="64"/>
      <point x="399" y="432"/>
    </contour>
    <contour>
      <point x="94" y="699" type="qcurve" smooth="yes"/>
      <point x="94" y="378"/>
      <point x="666" y="-82"/>
      <point x="1069" y="-82" type="qcurve" smooth="yes"/>
      <point x="1483" y="-82"/>
      <point x="2041" y="371"/>
      <point x="2041" y="699" type="qcurve" smooth="yes"/>
      <point x="2041" y="1018"/>
      <point x="1471" y="1479"/>
      <point x="1069" y="1479" type="qcurve" smooth="yes"/>
      <point x="666" y="1479"/>
      <point x="94" y="1018"/>
    </contour>
    <contour>
      <point x="517" y="669" type="line" smooth="yes"/>
      <point x="517" y="497"/>
      <point x="822" y="252"/>
      <point x="1067" y="252" type="qcurve" smooth="yes"/>
      <point x="1310" y="252"/>
      <point x="1569" y="436"/>
      <point x="1574" y="580" type="qcurve" smooth="yes"/>
      <point x="1574" y="580" type="line"/>
      <point x="1269" y="580" type="line"/>
      <point x="1262" y="517" type="line" smooth="yes"/>
      <point x="1256" y="454"/>
      <point x="1143" y="402"/>
      <point x="1069" y="402" type="qcurve" smooth="yes"/>
      <point x="981" y="402"/>
      <point x="850" y="534"/>
      <point x="850" y="669" type="qcurve" smooth="yes"/>
      <point x="850" y="758" type="line" smooth="yes"/>
      <point x="850" y="907"/>
      <point x="982" y="1027"/>
      <point x="1071" y="1027" type="qcurve" smooth="yes"/>
      <point x="1160" y="1027"/>
      <point x="1266" y="955"/>
      <point x="1266" y="872" type="qcurve" smooth="yes"/>
      <point x="1266" y="832" type="line"/>
      <point x="1575" y="832" type="line"/>
      <point x="1574" y="839" type="line" smooth="yes"/>
      <point x="1570" y="989"/>
      <point x="1316" y="1174"/>
      <point x="1064" y="1174" type="qcurve" smooth="yes"/>
      <point x="816" y="1174"/>
      <point x="517" y="932"/>
      <point x="517" y="757" type="qcurve" smooth="yes"/>
    </contour>
  </outline>
</glyph>
<glyph name="macron" format="1">
  <advance width="1287"/>
  <unicode hex="00AF"/>
  <outline>
    <contour>
      <point x="1090" y="1330" type="line"/>
      <point x="197" y="1330" type="line"/>
      <point x="197" y="1175" type="line"/>
      <point x="1090" y="1175" type="line"/>
    </contour>
    <contour>
      <point x="644" y="1052" type="move" name="_top"/>
    </contour>
  </outline>
</glyph>
<glyph name="periodcentered" format="1">
  <advance width="755"/>
  <unicode hex="00B7"/>
  <outline>
    <contour>
      <point x="161" y="729" type="qcurve" smooth="yes"/>
      <point x="161" y="692"/>
      <point x="259" y="606"/>
      <point x="378" y="606" type="qcurve" smooth="yes"/>
      <point x="496" y="606"/>
      <point x="594" y="692"/>
      <point x="594" y="729" type="qcurve" smooth="yes"/>
      <point x="594" y="767"/>
      <point x="496" y="853"/>
      <point x="378" y="853" type="qcurve" smooth="yes"/>
      <point x="259" y="853"/>
      <point x="161" y="767"/>
    </contour>
  </outline>
</glyph>
<glyph name="multiply" format="1">
  <advance width="1463"/>
  <unicode hex="00D7"/>
  <outline>
    <contour>
      <point x="137" y="325" type="line"/>
      <point x="317" y="175" type="line"/>
      <point x="1321" y="1002" type="line"/>
      <point x="1142" y="1154" type="line"/>
    </contour>
    <contour>
      <point x="140" y="1003" type="line"/>
      <point x="1144" y="176" type="line"/>
      <point x="1326" y="328" type="line"/>
      <point x="322" y="1157" type="line"/>
    </contour>
  </outline>
</glyph>
<glyph name="germandbls" format="1">
  <advance width="1218"/>
  <unicode hex="00DF"/>
  <outline>
    <contour>
      <point x="324" y="1112" type="line" smooth="yes"/>
      <point x="324" y="1261"/>
      <point x="440" y="1403"/>
      <point x="543" y="1403" type="qcurve" smooth="yes"/>
      <point x="644" y="1403"/>
      <point x="734" y="1283"/>
      <point x="734" y="1201" type="qcurve" smooth="yes"/>
      <point x="734" y="1149"/>
      <point x="698" y="1067"/>
      <point x="674" y="1029" type="qcurve" smooth="yes"/>
      <point x="646" y="984"/>
      <point x="596" y="887"/>
      <point x="596" y="822" type="qcurve" smooth="yes"/>
      <point x="596" y="730"/>
      <point x="689" y="603"/>
      <point x="748" y="553" type="qcurve" smooth="yes"/>
      <point x="818" y="494"/>
      <point x="945" y="385"/>
      <point x="945" y="308" type="qcurve" smooth="yes"/>
      <point x="945" y="235"/>
      <point x="842" y="131"/>
      <point x="726" y="131" type="qcurve" smooth="yes"/>
      <point x="657" y="131"/>
      <point x="522" y="185"/>
      <point x="488" y="207" type="qcurve"/>
      <point x="446" y="52" type="line"/>
      <point x="484" y="24"/>
      <point x="664" y="-20"/>
      <point x="745" y="-20" type="qcurve" smooth="yes"/>
      <point x="912" y="-20"/>
      <point x="1130" y="147"/>
      <point x="1130" y="317" type="qcurve" smooth="yes"/>
      <point x="1130" y="438"/>
      <point x="972" y="593"/>
      <point x="895" y="657" type="qcurve" smooth="yes"/>
      <point x="850" y="695"/>
      <point x="781" y="769"/>
      <point x="781" y="820" type="qcurve" smooth="yes"/>
      <point x="781" y="867"/>
      <point x="815" y="939"/>
      <point x="837" y="975" type="qcurve" smooth="yes"/>
      <point x="863" y="1019"/>
      <point x="909" y="1130"/>
      <point x="909" y="1217" type="qcurve" smooth="yes"/>
      <point x="909" y="1366"/>
      <point x="715" y="1554"/>
      <point x="533" y="1554" type="qcurve" smooth="yes"/>
      <point x="358" y="1554"/>
      <point x="140" y="1330"/>
      <point x="140" y="1112" type="qcurve" smooth="yes"/>
      <point x="140" y="0" type="line"/>
      <point x="324" y="0" type="line"/>
    </contour>
  </outline>
</glyph>
<glyph name="oslash" format="1">
  <advance width="1511"/>
  <unicode hex="00F8"/>
  <outline>
    <contour>
      <point x="85" y="509" type="line" smooth="yes"/>
      <point x="85" y="286"/>
      <point x="435" y="-30"/>
      <point x="757" y="-30" type="qcurve" smooth="yes"/>
      <point x="1077" y="-30"/>
      <point x="1426" y="286"/>
      <point x="1426" y="509" type="qcurve" smooth="yes"/>
      <point x="1426" y="542" type="line" smooth="yes"/>
      <point x="1426" y="771"/>
      <point x="1085" y="1082"/>
      <point x="754" y="1082" type="qcurve" smooth="yes"/>
      <point x="435" y="1082"/>
      <point x="85" y="765"/>
      <point x="85" y="542" type="qcurve" smooth="yes"/>
    </contour>
    <contour>
      <point x="434" y="542" type="line" smooth="yes"/>
      <point x="434" y="721"/>
      <point x="609" y="930"/>
      <point x="754" y="930" type="qcurve" smooth="yes"/>
      <point x="901" y="930"/>
      <point x="1077" y="721"/>
      <point x="1077" y="542" type="qcurve" smooth="yes"/>
      <point x="1077" y="509" type="line" smooth="yes"/>
      <point x="1077" y="328"/>
      <point x="901" y="122"/>
      <point x="757" y="122" type="qcurve" smooth="yes"/>
      <point x="609" y="122"/>
      <point x="434" y="328"/>
      <point x="434" y="509" type="qcurve" smooth="yes"/>
    </contour>
    <contour>
      <point x="867" y="511" type="line"/>
      <point x="649" y="597" type="line"/>
      <point x="355" y="140" type="line"/>
      <point x="329" y="117" type="line"/>
      <point x="174" y="-124" type="line"/>
      <point x="465" y="-124" type="line"/>
      <point x="605" y="95" type="line"/>
      <point x="607" y="117" type="line"/>
    </contour>
    <contour>
      <point x="1319" y="1201" type="line"/>
      <point x="1028" y="1201" type="line"/>
      <point x="876" y="964" type="line"/>
      <point x="876" y="944" type="line"/>
      <point x="634" y="573" type="line"/>
      <point x="852" y="487" type="line"/>
      <point x="1123" y="913" type="line"/>
      <point x="1149" y="935" type="line"/>
    </contour>
  </outline>
</glyph>
<glyph name="dotlessi" format="1">
  <advance width="657"/>
  <unicode hex="0131"/>
  <outline>
    <contour>
      <point x="157" y="0" type="line"/>
      <point x="500" y="0" type="line"/>
      <point x="500" y="1052" type="line"/>
      <point x="157" y="1052" type="line"/>
    </contour>
    <contour>
      <point x="329" y="1052" type="move" name="top"/>
    </contour>
  </outline>
</glyph>
<glyph name="quoteleft" format="1">
  <advance width="594"/>
  <unicode hex="2018"/>
  <outline>
    <contour>
      <point x="126" y="1073" type="line"/>
      <point x="465" y="1073" type="line"/>
      <point x="465" y="1197" type="line" smooth="yes"/>
      <point x="465" y="1298"/>
      <point x="535" y="1427"/>
      <point x="581" y="1481" type="qcurve"/>
      <point x="393" y="1578" type="line"/>
      <point x="246" y="1481"/>
      <point x="126" y="1264"/>
      <point x="126" y="1194" type="qcurve" smooth="yes"/>
    </contour>
  </outline>
</glyph>
<glyph name="quoteright" format="1">
  <advance width="595"/>
  <unicode hex="2019"/>
  <outline>
    <contour>
      <point x="95" y="1048" type="qcurve"/>
      <point x="284" y="951" type="line"/>
      <point x="431" y="1048"/>
      <point x="551" y="1265"/>
      <point x="551" y="1335" type="qcurve" smooth="yes"/>
      <point x="551" y="1456" type="line"/>
      <point x="212" y="1456" type="line"/>
      <point x="212" y="1332" type="line" smooth="yes"/>
      <point x="212" y="1231"/>
      <point x="142" y="1102"/>
    </contour>
  </outline>
</glyph>
<glyph name="quotedblbase" format="1">
  <advance width="1090"/>
  <unicode hex="201E"/>
  <outline>
    <contour>
      <point x="95" y="-188" type="qcurve"/>
      <point x="284" y="-285" type="line"/>
      <point x="431" y="-188"/>
      <point x="551" y="29"/>
      <point x="551" y="99" type="qcurve" smooth="yes"/>
      <point x="551" y="220" type="line"/>
      <point x="212" y="220" type="line"/>
      <point x="212" y="96" type="line" smooth="yes"/>
      <point x="212" y="-5"/>
      <point x="142" y="-134"/>
    </contour>
    <contour>
      <point x="590" y="-188" type="qcurve"/>
      <point x="779" y="-285" type="line"/>
      <point x="925" y="-188"/>
      <point x="1046" y="29"/>
      <point x="1046" y="99" type="qcurve" smooth="yes"/>
      <point x="1046" y="220" type="line"/>
      <point x="707" y="220" type="line"/>
      <point x="707" y="96" type="line" smooth="yes"/>
      <point x="707" y="-5"/>
      <point x="637" y="-134"/>
    </contour>
  </outline>
</glyph>
<glyph name="bullet" format="1">
  <advance width="971"/>
  <unicode hex="2022"/>
  <outline>
    <contour>
      <point x="164" y="732" type="line" smooth="yes"/>
      <point x="164" y="660"/>
      <point x="330" y="536"/>
      <point x="486" y="536" type="qcurve" smooth="yes"/>
      <point x="642" y="536"/>
      <point x="807" y="660"/>
      <point x="807" y="732" type="qcurve" smooth="yes"/>
      <point x="807" y="773" type="line" smooth="yes"/>
      <point x="807" y="845"/>
      <point x="642" y="971"/>
      <point x="484" y="971" type="qcurve" smooth="yes"/>
      <point x="330" y="971"/>
      <point x="164" y="846"/>
      <point x="164" y="773" type="qcurve" smooth="yes"/>
    </contour>
  </outline>
</glyph>
<glyph name="Euro" format="1">
  <advance width="1471"/>
  <unicode hex="20AC"/>
  <outline>
    <contour>
      <point x="1165" y="947" type="line"/>
      <point x="25" y="947" type="line"/>
      <point x="25" y="797" type="line"/>
      <point x="1165" y="797" type="line"/>
    </contour>
    <contour>
      <point x="1165" y="626" type="line"/>
      <point x="25" y="626" type="line"/>
      <point x="25" y="477" type="line"/>
      <point x="1165" y="477" type="line"/>
    </contour>
    <contour>
      <point x="874" y="-20" type="qcurve" smooth="yes"/>
      <point x="1178" y="-20"/>
      <point x="1440" y="237"/>
      <point x="1440" y="378" type="qcurve" smooth="yes"/>
      <point x="1440" y="393" type="line"/>
      <point x="1103" y="393" type="line"/>
      <point x="1105" y="375" type="line" smooth="yes"/>
      <point x="1115" y="255"/>
      <point x="977" y="139"/>
      <point x="867" y="139" type="qcurve" smooth="yes"/>
      <point x="709" y="139"/>
      <point x="539" y="326"/>
      <point x="539" y="560" type="qcurve" smooth="yes"/>
      <point x="539" y="874" type="line" smooth="yes"/>
      <point x="539" y="1108"/>
      <point x="708" y="1298"/>
      <point x="849" y="1298" type="qcurve" smooth="yes"/>
      <point x="978" y="1298"/>
      <point x="1089" y="1186"/>
      <point x="1089" y="1057" type="qcurve" smooth="yes"/>
      <point x="1089" y="1043" type="line"/>
      <point x="1428" y="1043" type="line"/>
      <point x="1428" y="1058" type="line" smooth="yes"/>
      <point x="1428" y="1198"/>
      <point x="1166" y="1455"/>
      <point x="846" y="1455" type="qcurve" smooth="yes"/>
      <point x="522" y="1455"/>
      <point x="199" y="1145"/>
      <point x="199" y="872" type="qcurve" smooth="yes"/>
      <point x="199" y="560" type="line" smooth="yes"/>
      <point x="199" y="289"/>
      <point x="535" y="-20"/>
    </contour>
  </outline>
</glyph>
<glyph name="numero" format="1">
  <advance width="2984"/>
  <unicode hex="2116"/>
  <outline>
    <contour>
      <point x="170" y="0" type="line"/>
      <point x="514" y="0" type="line"/>
      <point x="514" y="1012" type="line" smooth="yes"/>
      <point x="514" y="1066"/>
      <point x="517" y="1108"/>
      <point x="516" y="1127" type="qcurve"/>
      <point x="408" y="1127" type="line"/>
      <point x="412" y="1119"/>
      <point x="469" y="1049"/>
      <point x="479" y="1036" type="qcurve" smooth="yes"/>
      <point x="1223" y="0" type="line"/>
      <point x="1561" y="0" type="line"/>
      <point x="1561" y="1456" type="line"/>
      <point x="1217" y="1456" type="line"/>
      <point x="1217" y="441" type="line" smooth="yes"/>
      <point x="1217" y="453"/>
      <point x="1221" y="378"/>
      <point x="1224" y="326" type="qcurve"/>
      <point x="1318" y="326" type="line"/>
      <point x="1315" y="333"/>
      <point x="1266" y="403"/>
      <point x="1255" y="417" type="qcurve" smooth="yes"/>
      <point x="507" y="1456" type="line"/>
      <point x="170" y="1456" type="line"/>
    </contour>
    <contour>
      <point x="1606" y="962" type="line" smooth="yes"/>
      <point x="1606" y="761"/>
      <point x="1926" y="471"/>
      <point x="2236" y="471" type="qcurve" smooth="yes"/>
      <point x="2546" y="471"/>
      <point x="2868" y="761"/>
      <point x="2868" y="962" type="qcurve" smooth="yes"/>
      <point x="2868" y="981" type="line" smooth="yes"/>
      <point x="2868" y="1188"/>
      <point x="2553" y="1475"/>
      <point x="2234" y="1475" type="qcurve" smooth="yes"/>
      <point x="1925" y="1475"/>
      <point x="1606" y="1181"/>
      <point x="1606" y="981" type="qcurve" smooth="yes"/>
    </contour>
    <contour>
      <point x="1948" y="983" type="line" smooth="yes"/>
      <point x="1948" y="1144"/>
      <point x="2103" y="1323"/>
      <point x="2234" y="1323" type="qcurve" smooth="yes"/>
      <point x="2367" y="1323"/>
      <point x="2519" y="1144"/>
      <point x="2519" y="983" type="qcurve" smooth="yes"/>
      <point x="2519" y="964" type="line" smooth="yes"/>
      <point x="2519" y="801"/>
      <point x="2367" y="622"/>
      <point x="2236" y="622" type="qcurve" smooth="yes"/>
      <point x="2103" y="622"/>
      <point x="1948" y="801"/>
      <point x="1948" y="964" type="qcurve" smooth="yes"/>
    </contour>
    <contour>
      <point x="1652" y="129" type="line"/>
      <point x="2829" y="129" type="line"/>
      <point x="2829" y="295" type="line"/>
      <point x="1652" y="295" type="line"/>
    </contour>
  </outline>
</glyph>
<glyph name="bitcoin" format="1">
  <advance width="1481"/>
  <outline>
    <contour>
      <point x="199" y="0" type="line"/>
      <point x="789" y="0" type="line" smooth="yes"/>
      <point x="1087" y="0"/>
      <point x="1416" y="231"/>
      <point x="1416" y="420" type="qcurve" smooth="yes"/>
      <point x="1416" y="546"/>
      <point x="1213" y="740"/>
      <point x="1118" y="761" type="qcurve"/>
      <point x="1118" y="774" type="line"/>
      <point x="1215" y="801"/>
      <point x="1370" y="976"/>
      <point x="1370" y="1068" type="qcurve" smooth="yes"/>
      <point x="1370" y="1257"/>
      <point x="1054" y="1456"/>
      <point x="751" y="1456" type="qcurve" smooth="yes"/>
      <point x="199" y="1456" type="line"/>
    </contour>
    <contour>
      <point x="548" y="836" type="line"/>
      <point x="548" y="1298" type="line"/>
      <point x="795" y="1298" type="line" smooth="yes"/>
      <point x="898" y="1298"/>
      <point x="1022" y="1204"/>
      <point x="1022" y="1070" type="qcurve" smooth="yes"/>
      <point x="1022" y="945"/>
      <point x="885" y="836"/>
      <point x="801" y="836" type="qcurve" smooth="yes"/>
    </contour>
    <contour>
      <point x="548" y="157" type="line"/>
      <point x="548" y="681" type="line"/>
      <point x="837" y="681" type="line" smooth="yes"/>
      <point x="945" y="681"/>
      <point x="1068" y="557"/>
      <point x="1068" y="418" type="qcurve" smooth="yes"/>
      <point x="1068" y="283"/>
      <point x="927" y="157"/>
      <point x="828" y="157" type="qcurve" smooth="yes"/>
    </contour>
    <contour>
      <point x="881" y="369" type="line"/>
      <point x="881" y="518" type="line"/>
      <point x="480" y="518" type="line"/>
      <point x="417" y="524" type="line"/>
      <point x="42" y="524" type="line"/>
      <point x="42" y="366" type="line"/>
      <point x="421" y="366" type="line"/>
      <point x="477" y="369" type="line"/>
    </contour>
  </outline>
</glyph>
<glyph name="nine.pnum" format="1">
  <advance width="1381"/>
  <outline>
    <contour>
      <point x="23" y="995" type="qcurve" smooth="yes"/>
      <point x="23" y="826"/>
      <point x="311" y="535"/>
      <point x="611" y="535" type="qcurve" smooth="yes"/>
      <point x="826" y="535"/>
      <point x="1065" y="691"/>
      <point x="1100" y="803" type="qcurve"/>
      <point x="1100" y="1781" type="line"/>
      <point x="954" y="836"/>
      <point x="753" y="689"/>
      <point x="646" y="689" type="qcurve" smooth="yes"/>
      <point x="534" y="689"/>
      <point x="367" y="844"/>
      <point x="367" y="1004" type="qcurve" smooth="yes"/>
      <point x="367" y="1165"/>
      <point x="530" y="1326"/>
      <point x="651" y="1326" type="qcurve" smooth="yes"/>
      <point x="775" y="1326"/>
      <point x="968" y="1117"/>
      <point x="968" y="845" type="qcurve" smooth="yes"/>
      <point x="968" y="796" type="line" smooth="yes"/>
      <point x="968" y="394"/>
      <point x="601" y="127"/>
      <point x="364" y="127" type="qcurve" smooth="yes"/>
      <point x="265" y="127" type="line"/>
      <point x="265" y="-30" type="line"/>
      <point x="347" y="-30" type="line" smooth="yes"/>
      <point x="823" y="-30"/>
      <point x="1313" y="428"/>
      <point x="1313" y="792" type="qcurve" smooth="yes"/>
      <point x="1313" y="821" type="line" smooth="yes"/>
      <point x="1313" y="1176"/>
      <point x="928" y="1478"/>
      <point x="646" y="1478" type="qcurve" smooth="yes"/>
      <point x="347" y="1478"/>
      <point x="23" y="1175"/>
    </contour>
  </outline>
</glyph>
<glyph name="two.pnum" format="1">
  <advance width="1281"/>
  <outline>
    <contour>
      <point x="53" y="0" type="line"/>
      <point x="1248" y="0" type="line"/>
      <point x="1248" y="152" type="line"/>
      <point x="427" y="152" type="line"/>
      <point x="858" y="574" type="line" smooth="yes"/>
      <point x="1011" y="723"/>
      <point x="1214" y="969"/>
      <point x="1214" y="1096" type="qcurve" smooth="yes"/>
      <point x="1214" y="1231"/>
      <point x="928" y="1476"/>
      <point x="637" y="1476" type="qcurve" smooth="yes"/>
      <point x="353" y="1476"/>
      <point x="41" y="1200"/>
      <point x="41" y="1035" type="qcurve" smooth="yes"/>
      <point x="41" y="1028" type="line"/>
      <point x="385" y="1028" type="line"/>
      <point x="385" y="1037" type="line" smooth="yes"/>
      <point x="385" y="1180"/>
      <point x="543" y="1324"/>
      <point x="637" y="1324" type="qcurve" smooth="yes"/>
      <point x="747" y="1324"/>
      <point x="873" y="1193"/>
      <point x="873" y="1072" type="qcurve" smooth="yes"/>
      <point x="873" y="952"/>
      <point x="749" y="802"/>
      <point x="661" y="716" type="qcurve" smooth="yes"/>
      <point x="53" y="116" type="line"/>
    </contour>
  </outline>
</glyph>
